<svg width="32" height="32" viewBox="0 0 32 32" fill="none" xmlns="http://www.w3.org/2000/svg">
<rect width="32" height="32" fill="white"/>
<path d="M20.4332 28.8C18.7852 28.8 17.9612 28.408 17.9612 27.624C17.9612 27.352 18.0732 27.096 18.2972 26.856C18.5212 26.616 18.7212 26.496 18.8972 26.496C19.1052 26.496 19.3052 26.536 19.4972 26.616C19.6892 26.712 19.8652 26.872 20.0252 27.096C20.2332 27.352 20.4172 27.536 20.5772 27.648C20.7532 27.76 20.9452 27.816 21.1532 27.816C21.7132 27.816 22.1132 27.472 22.3532 26.784C22.6092 26.112 22.7372 25.192 22.7372 24.024V10.776C22.7372 10.216 22.6172 9.824 22.3772 9.6C22.1372 9.36 21.7292 9.184 21.1532 9.072C20.6252 8.976 20.3612 8.816 20.3612 8.592C20.3612 8.496 20.4252 8.432 20.5532 8.4C20.6812 8.352 20.8492 8.328 21.0572 8.328C21.4892 8.328 21.8412 8.336 22.1132 8.352C22.4012 8.368 22.6732 8.384 22.9292 8.4C23.1852 8.4 23.4972 8.4 23.8652 8.4C24.1692 8.4 24.4012 8.4 24.5612 8.4C24.7372 8.384 24.9292 8.368 25.1372 8.352C25.3612 8.336 25.6892 8.328 26.1212 8.328C26.3292 8.328 26.4972 8.352 26.6252 8.4C26.7532 8.432 26.8172 8.496 26.8172 8.592C26.8172 8.704 26.7532 8.8 26.6252 8.88C26.4972 8.96 26.2972 9.024 26.0252 9.072C25.4332 9.184 25.0572 9.36 24.8972 9.6C24.7372 9.824 24.6572 10.216 24.6572 10.776V22.872C24.6572 23.544 24.5532 24.176 24.3452 24.768C24.1372 25.36 23.8812 25.888 23.5772 26.352C23.2892 26.816 23.0172 27.2 22.7612 27.504C22.4412 27.888 22.0892 28.2 21.7052 28.44C21.3212 28.68 20.8972 28.8 20.4332 28.8Z" fill="black"/>
<path d="M3.648 24.12C3.44 24.12 3.272 24.088 3.144 24.024C3.016 23.976 2.952 23.904 2.952 23.808C2.952 23.696 3.016 23.6 3.144 23.52C3.288 23.424 3.488 23.336 3.744 23.256C4.16 23.128 4.544 22.936 4.896 22.68C5.248 22.424 5.552 22 5.808 21.408C6.256 20.384 6.664 19.424 7.032 18.528C7.416 17.632 7.776 16.752 8.112 15.888C8.448 15.024 8.792 14.128 9.144 13.2C9.512 12.256 9.896 11.232 10.296 10.128C10.376 9.904 10.448 9.68 10.512 9.456C10.576 9.232 10.616 8.992 10.632 8.736C10.776 8.688 10.92 8.64 11.064 8.592C11.208 8.544 11.352 8.472 11.496 8.376C11.64 8.28 11.736 8.136 11.784 7.944C11.848 7.752 11.904 7.624 11.952 7.56C11.968 7.544 11.984 7.536 12 7.536C12.032 7.536 12.056 7.552 12.072 7.584C12.104 7.648 12.128 7.728 12.144 7.824C12.176 7.92 12.208 8.016 12.24 8.112C12.624 9.328 13.024 10.568 13.44 11.832C13.856 13.096 14.256 14.32 14.64 15.504C15.04 16.672 15.4 17.728 15.72 18.672C16.056 19.6 16.32 20.352 16.512 20.928C16.736 21.568 16.976 22.048 17.232 22.368C17.488 22.688 17.752 22.912 18.024 23.04C18.312 23.168 18.616 23.264 18.936 23.328C19.208 23.376 19.408 23.456 19.536 23.568C19.664 23.664 19.728 23.768 19.728 23.88C19.728 23.976 19.664 24.04 19.536 24.072C19.408 24.104 19.24 24.12 19.032 24.12C18.808 24.12 18.504 24.104 18.12 24.072C17.736 24.056 17.328 24.032 16.896 24C16.464 23.984 16.064 23.976 15.696 23.976C15.392 23.976 15.08 23.976 14.76 23.976C14.44 23.976 14.144 23.984 13.872 24C13.6 24 13.368 24 13.176 24C12.968 24 12.8 23.976 12.672 23.928C12.544 23.88 12.48 23.808 12.48 23.712C12.48 23.6 12.56 23.504 12.72 23.424C12.88 23.344 13.064 23.288 13.272 23.256C13.8 23.176 14.176 23.04 14.4 22.848C14.624 22.656 14.736 22.432 14.736 22.176C14.736 21.936 14.68 21.592 14.568 21.144C14.472 20.68 14.352 20.192 14.208 19.68C14.064 19.152 13.928 18.688 13.8 18.288C13.768 18.16 13.704 18.088 13.608 18.072C13.528 18.04 13.376 18.024 13.152 18.024H8.616C8.552 18.024 8.48 18.056 8.4 18.12C8.336 18.168 8.272 18.28 8.208 18.456C8.16 18.616 8.08 18.872 7.968 19.224C7.856 19.56 7.744 19.92 7.632 20.304C7.52 20.688 7.424 21.032 7.344 21.336C7.264 21.64 7.224 21.832 7.224 21.912C7.224 22.264 7.36 22.56 7.632 22.8C7.904 23.024 8.232 23.184 8.616 23.28C9.144 23.424 9.408 23.584 9.408 23.76C9.408 23.856 9.344 23.928 9.216 23.976C9.088 24.008 8.92 24.024 8.712 24.024C8.504 24.024 8.2 24.016 7.8 24C7.4 23.984 6.976 23.976 6.528 23.976C6 23.976 5.488 24 4.992 24.048C4.496 24.096 4.048 24.12 3.648 24.12ZM9.264 17.232H12.984C13.208 17.232 13.32 17.192 13.32 17.112C13.32 17.08 13.312 17.048 13.296 17.016C13.296 16.968 13.288 16.92 13.272 16.872L11.4 11.016C11.304 10.728 11.232 10.584 11.184 10.584C11.152 10.584 11.088 10.72 10.992 10.992L8.808 16.872C8.776 16.968 8.76 17.032 8.76 17.064C8.76 17.144 8.8 17.192 8.88 17.208C8.976 17.224 9.104 17.232 9.264 17.232Z" fill="black"/>
</svg>
